<?xml version="1.0" encoding="utf-8"?>
<!-- Generator: Adobe Illustrator 19.2.1, SVG Export Plug-In . SVG Version: 6.00 Build 0)  -->
<svg version="1.1" id="Layer_1" xmlns="http://www.w3.org/2000/svg" xmlns:xlink="http://www.w3.org/1999/xlink" x="0px" y="0px"
	 viewBox="0 0 28 28" style="enable-background:new 0 0 28 28;" xml:space="preserve">
<path d="M18.3,8.3L14,12.6L9.7,8.3L8.3,9.7l4.3,4.3l-4.3,4.3l1.4,1.4l4.3-4.3l4.3,4.3l1.4-1.4L15.4,14l4.3-4.3L18.3,8.3z M14,0
	C6.3,0,0,6.3,0,14s6.3,14,14,14s14-6.3,14-14S21.7,0,14,0z M14,26C7.4,26,2,20.6,2,14S7.4,2,14,2s12,5.4,12,12S20.6,26,14,26z"/>
</svg>
