<?xml version="1.0" encoding="utf-8"?>
<!-- Generator: Adobe Illustrator 19.2.1, SVG Export Plug-In . SVG Version: 6.00 Build 0)  -->
<svg version="1.1" id="Layer_1" xmlns="http://www.w3.org/2000/svg" xmlns:xlink="http://www.w3.org/1999/xlink" x="0px" y="0px"
	 viewBox="0 0 20.3 20.3" style="enable-background:new 0 0 20.3 20.3;" xml:space="preserve">
<style type="text/css">
	.st0{fill:#5F93CE;}
</style>
<title>social customer care_cte_final</title>
<path class="st0" d="M10.2,20.3C4.5,20.3,0,15.8,0,10.2C0,4.5,4.6,0,10.2,0c5.6,0,10.2,4.6,10.2,10.2C20.3,15.8,15.8,20.3,10.2,20.3
	z M10.2,1C5.1,1,1,5.1,1,10.2s4.1,9.2,9.2,9.2s9.2-4.1,9.2-9.2l0,0C19.3,5.1,15.2,1,10.2,1L10.2,1z"/>
<path class="st0" d="M10.2,16.7c-1.9-0.1-3.6-1.2-4.6-2.9c-0.2-0.2-0.1-0.5,0.1-0.7C5.8,13,5.9,13,6,13h8.3l0,0
	c0.3,0,0.5,0.2,0.5,0.5c0,0.1,0,0.2-0.1,0.3C13.8,15.5,12.1,16.5,10.2,16.7z M7,14c1.9,2.2,4.4,2.2,6.3,0H7z"/>
<path class="st0" d="M8.3,7.3C8.1,7.3,8,7.2,7.9,7.1C7.4,6.2,6.4,5.9,5.5,6.4C5.2,6.5,5,6.8,4.8,7.1C4.7,7.3,4.3,7.3,4.1,7.1
	C4,7,3.9,6.7,4,6.5c0.7-1.3,2.4-1.7,3.7-1c0.4,0.2,0.8,0.6,1,1C8.9,6.7,8.8,7,8.6,7.2C8.5,7.2,8.4,7.3,8.3,7.3z"/>
<path class="st0" d="M16,7.3c-0.2,0-0.3-0.1-0.4-0.2c-0.5-0.8-1.5-1.2-2.4-0.7c-0.3,0.2-0.5,0.4-0.7,0.7c-0.2,0.2-0.5,0.2-0.7,0.1
	c-0.2-0.2-0.2-0.4-0.1-0.6c0.8-1.3,2.5-1.7,3.8-0.9c0.4,0.2,0.7,0.5,0.9,0.9c0.2,0.2,0.1,0.5-0.1,0.7C16.2,7.2,16.1,7.3,16,7.3z"/>
<circle class="st0" cx="6.3" cy="8.8" r="1.5"/>
<circle class="st0" cx="14" cy="8.8" r="1.5"/>
</svg>
