<svg id="Layer_1" xmlns="http://www.w3.org/2000/svg" width="1000" height="1000" viewBox="0 0 1000 1000"><style>.st0{fill:#5596E6;} .st1{fill:#1D3649;}</style><circle class="st0" cx="500" cy="500" r="500"/><path class="st1" d="M304.2 243.2l-8.7 7.2c-33.6 27.7-60.7 61.4-80.6 100.1l-2.8 5.5 98.7 143.2-98.9 140.2 2.9 5.6c19.9 38.8 46.9 72.5 80.1 100.1l8.6 7.2 177.7-252.2-177-256.9zm-4.7 478.7c-25.6-23-46.9-50.1-63.4-80.7l100-141.7-99.8-144.8c16.6-30.6 38-57.7 63.9-80.8L456 500.1 299.5 721.9zM811.5 495.9l-.7-11.1c-2.7-41.7-13.3-82-31.6-119.7l-1.2-2.4-3.6-7.2-207.2-.4-115.5-167.3-6.4 1c-32.1 4.9-63.2 14.6-92.5 29-9 4.4-18 9.4-26.9 14.9l-9.3 5.7 177.3 256.8 317.6.7zM494.5 504.6l-177 257.2 9.3 5.7c8.9 5.4 18 10.4 26.9 14.8 29.3 14.4 60.5 24.1 92.5 28.9l6.4 1 115.3-167.5 207.2-.7 3.6-7.2c.5-.9.9-1.7 1.3-2.5 18.2-37.7 28.8-78 31.4-119.7l.7-11.1-317.6 1.1z"/></svg>