<svg id="Layer_1" xmlns="http://www.w3.org/2000/svg" width="1000" height="1000" viewBox="-915 -139 1000 1000"><style>.st0{fill:#5596E6;} .st1{fill:#264A60;} .st2{fill:#325C80;} .st3{fill:#FFFFFF;}</style><circle class="st0" cx="-415" cy="361" r="500"/><circle class="st1" cx="-641.4" cy="130.1" r="90.6"/><path class="st2" d="M-803.1 328.7h776.2v135.8h-776.2z"/><path class="st1" d="M-26.9 328.7v135.8h-776.2V328.7h776.2m38.8-38.9H-841.9v213.4H11.9V289.8z"/><path class="st3" d="M-757.8 367.5h232.9v58.2h-232.9zM-318 367.5h245.8v58.2H-318zM-479.7 367.5h116.4v58.2h-116.4z"/><path class="st1" d="M-499.1 580.9h155.2v155.2h-155.2zM-287.303 123.964l95.105-95.105 95.105 95.104-95.105 95.105z"/><path class="st3" d="M-499.1 555h157.8l-78.9-92.4zM-561.2 251H-719l78.9 92.5zM-114.9 251h-157.8l78.9 92.5z"/></svg>