<?xml version="1.0" encoding="utf-8"?>
<!-- Generator: Adobe Illustrator 19.2.1, SVG Export Plug-In . SVG Version: 6.00 Build 0)  -->
<svg version="1.1" id="Layer_1" xmlns="http://www.w3.org/2000/svg" xmlns:xlink="http://www.w3.org/1999/xlink" x="0px" y="0px"
	 viewBox="0 0 20.3 20.3" style="enable-background:new 0 0 20.3 20.3;" xml:space="preserve">
<style type="text/css">
	.st0{fill:#5F93CE;}
</style>
<title>social customer care_cte_final</title>
<path class="st0" d="M10.2,20.3C4.5,20.3,0,15.8,0,10.2C0,4.5,4.6,0,10.2,0c5.6,0,10.2,4.6,10.2,10.2C20.3,15.8,15.8,20.3,10.2,20.3
	z M10.2,1C5.1,1,1,5.1,1,10.2s4.1,9.2,9.2,9.2s9.2-4.1,9.2-9.2l0,0C19.3,5.1,15.2,1,10.2,1L10.2,1z"/>
<circle class="st0" cx="6.3" cy="8.8" r="1.5"/>
<circle class="st0" cx="14" cy="8.8" r="1.5"/>
<path class="st0" d="M13.2,15.3H7.1c-0.3,0-0.5-0.2-0.5-0.5s0.2-0.5,0.5-0.5h6.1c0.3,0,0.5,0.2,0.5,0.5S13.5,15.3,13.2,15.3z"/>
</svg>
